# xmcd
# 
# Track frame offsets:
#     150
#     17471
#     34478
#     52018
#     69774
#     84559
#     103262
#     118494
#     137765
#     153252
#     169983
#     185579
#     201569
#     220307
#     237826
# 
# Disc length: 3455
# 
# Revision: 3
# Processed by: cddbd v1.5.2PL0 Copyright (c) Steve Scherf et al.
# Submitted via: fre:ac v1.0.31
# 
DISCID=df0d7d0f
DTITLE=LeAnn Rimes - Whatever We Wanna
DYEAR=2006
DGENRE=Country
TTITLE0=Satisfied
TTITLE1=And It Feels Like
TTITLE2=For The First Time
TTITLE3=Save Myself
TTITLE4=A Little More Time
TTITLE5=Rumour 'Bout A Revolution
TTITLE6=Destructive
TTITLE7=Strong
TTITLE8=Whatever We Wanna
TTITLE9=Everybody's Someone (Feat. Brian McFadden)
TTITLE10=Headphones
TTITLE11=Long Night
TTITLE12=This Life
TTITLE13=Break Me Down
TTITLE14=Some People
EXTD=YEAR: 2006
EXTT0=
EXTT1=
EXTT2=
EXTT3=
EXTT4=
EXTT5=
EXTT6=
EXTT7=
EXTT8=
EXTT9=
EXTT10=
EXTT11=
EXTT12=
EXTT13=
EXTT14=
PLAYORDER=
